# xmcd CD database file
#
# Track frame offsets:
#	150
#	19892
#	39452
#	73917
#	89965
#	112715
#	143212
#	164507
#	184285
#
# Disc length: 2883 seconds
#
# Revision: 0
# Processed by: cddbd v1.5.1PL0 Copyright (c) Steve Scherf et al.
# Submitted via: CDex 1.51
#
DISCID=820b4109
DTITLE=Fletcher Henderson All Stars In Hi-Fi,Direct.Rex Stewart - The Big Reunion
DYEAR=1900
DGENRE=Jazz
TTITLE0=Sugar Foot Stomp ( Oliver-Armstrong )
TTITLE1=A Hundred Years From Today ( Young-Wasington )
TTITLE2=Honeysuckle Rose ( Walter-Razaf )
TTITLE3='Round About Midnight ( T.Monk )
TTITLE4=Casey Stew ( Al Casey )
TTITLE5=Wrappin'iy Up ( Handerson )
TTITLE6=Three Thieves ( Rex Stewart )
TTITLE7=Thr Way She Walks ( Rex Stewart )
TTITLE8=King Porter Stomp ( Morton )
EXTD=
EXTT0=
EXTT1=
EXTT2=
EXTT3=
EXTT4=
EXTT5=
EXTT6=
EXTT7=
EXTT8=
PLAYORDER=
